# xmcd
#
# Track frame offsets:
#	150
#	13700
#	27267
#	40750
#	54250
#	64770
#	76332
#	90427
#	104825
#	119237
#	128120
#	141750
#	152562
#	168717
#	180342
#	191787
#	203437
#	214855
#	225287
#	240315
#	255790
#	266870
#
# Disc length: 3737
#
# Revision: 2
# Processed by: cddbd v1.5.1PL0 Copyright (c) Steve Scherf et al.
# Submitted via: audiograbber 1.82.01
# Normalized: r1:DSETVAR1
#
DISCID=240e9716
DTITLE=Various Artist - The Best Of Mainstream Blues
DYEAR=1900
DGENRE=Blues
TTITLE0=John Lee Hooker - I'm In The Mood
TTITLE1=John Lee Hooker - The Syndicator
TTITLE2=Lightning Hopkins - Hello Central
TTITLE3=Lightning Hopkins - New Short Haired Woman
TTITLE4=Brownie McGee - Key To The Highway
TTITLE5=Brownie McGee - Bull Dog Blues
TTITLE6=Bob Gaddy and His Alley Cats - Bicycle Blues
TTITLE7=Peppermint Harris - Sweet Happy Home
TTITLE8=Roscoe Gordon - No More Doggin
TTITLE9=Roscoe Gordon - What You Got In Mind
TTITLE10=Smokey Hwak - Shake A Leg
TTITLE11=Smokey Hawk - I Love You Baby
TTITLE12=Ray Charles - I Found My Baby
TTITLE13=Ray Charles - Guitar Blues
TTITLE14=Lightning Hopkins - I WondertWhy
TTITLE15=Lightning Hopkins - Buck Dance Boogey
TTITLE16=James Wayne - Junco Partner
TTITLE17=James Wayne - Please Baby Please
TTITLE18=Johhny Terry and Brownie McGee - Going Down Slow
TTITLE19=Arbee Stidham - Feeeling Blue And Low
TTITLE20=Arbee Stidham - I'm In The Mood
TTITLE21=John Lee Hooker - House Rent Boogey
EXTD=
EXTT0=
EXTT1=
EXTT2=
EXTT3=
EXTT4=
EXTT5=
EXTT6=
EXTT7=
EXTT8=
EXTT9=
EXTT10=
EXTT11=
EXTT12=
EXTT13=
EXTT14=
EXTT15=
EXTT16=
EXTT17=
EXTT18=
EXTT19=
EXTT20=
EXTT21=
PLAYORDER=
